<?xml version="1.0" encoding="utf-8"?>
<!-- Generator: Adobe Illustrator 19.0.0, SVG Export Plug-In . SVG Version: 6.00 Build 0)  -->
<svg version="1.1" id="Layer_1" xmlns="http://www.w3.org/2000/svg" xmlns:xlink="http://www.w3.org/1999/xlink" x="0px" y="0px"
	 viewBox="0 0 1760 886" style="enable-background:new 0 0 1760 886;" xml:space="preserve">
<style type="text/css">
	.st0{fill:#282828;}
	.st1{fill:#E20A1A;}
</style>
<g id="XMLID_91_">
	<g id="XMLID_108_">
		<path id="XMLID_121_" class="st0" d="M359.7,444.7V441l2-1.9l2-8.3v-2.7v-2.8l0.1-2.8c0.2-5.1,0.4-9.3,1.4-12.9
			c8.4,9,12.8,19.1,13.6,30.3c1,1.3,1.8,2.6,2.6,3.9l8.6-0.4l6.2-10.8l1.8-0.9l1.8-0.9l0.9-1.8l1.8-0.9c2.3-3,4.7-5.5,6.7-7.4
			c0,6.7,0.4,12.2-1.6,16.5v2.8c0,0.9-0.7,1.8-0.9,2.7l23.6-1.1c2-10.9,2.5-22.5,1.6-34.7c1.8-4.4,2.7-8.4,2.7-11.9
			c2.1-3.4,3.6-6.5,4.6-9.2c-1.3-7-1.6-13.1-1-18.4c-4-1.6-7.7-2.2-11-1.8l-1.8,1.8l-11.9,9.2c-3.3,3.3-5.7,6-7.4,8.3
			c-4.1,8.8-9.3,15.6-15.6,20.3c-6.5-9-13.6-15.7-21.1-20.3c0-4.6-0.3-8.3-0.9-11l-10.1-7.3c-4.3,5.2-9.2,6.7-14.7,4.5
			c-3,4.2-4.4,8.6-5.1,12.9c3.6,5.4,5.1,10.6,5.1,15.6v2.8c-2,2.5-1.6,5-1.3,7.4l-2.1,11.9c-0.2,4.7-0.9,8.7-1.9,12
			c0,4.4-0.4,8.5-1.1,12.4l22.8-1.1L359.7,444.7z"/>
		<path id="XMLID_3_" class="st0" d="M501.8,381.3l1.8-7c-5.3-2.8-9.4-5.7-12.3-8.7l-15.7,10.5l-7,12.3l-8.3,24.7l-7.8,4.7l-3.3,8.3
			l0.9,8.6c-1,2.1-2,4.2-3,6.2l65.8-3.1C514.5,419.2,510.8,400.3,501.8,381.3z"/>
		<path id="XMLID_117_" class="st0" d="M543.7,428.7v-10v-4.5v-11.9v-3.7v-2.8c2-10.9,2-19.7,1.7-26.4c-4.2-2.9-8.6-4.4-12.8-4.5
			c-7.3,2.3-12.5,6.2-15.5,11.9c2.1,3.8,3.8,9.3,4.1,16.4l-0.5,20v24.3l24.9-1.2C544.3,433.6,543.7,431,543.7,428.7z"/>
		<path id="XMLID_116_" class="st0" d="M597.2,393.2c-1.9-1.2-3.4-1.5-4.5-0.9l-2.8,3.6l-1.8,2.8l-2.7,3.7l-6.4,10.9l-2.7,3.7
			l-2.8,2.7l-2.7,2.8l-0.9,1.8c-2.3,4.5-4.9,8.3-7.8,11.4l25.6-1.2C593.6,419.5,596.8,405.7,597.2,393.2z"/>
		<path id="XMLID_115_" class="st0" d="M657.1,416.3l-4.6,1.8h-2.8l-10-1.8l-9-1.7v-2.7l0.8-1.8l0.9-16.5l2.8-1.3l3.6-1.2h7.3
			c8.4-1,15.4-3,21.1-3.3c6.7-10,2.7-18-11.9-23.2l-5.6,1.6h-7.3h-2.8l-2.7,1.4l-1.8-0.7l-6.4-0.7h-2.8c-2.9-1-5.3-0.9-7.3-0.9
			l-1.8,2.8c-1.9,4.2-3.7,7.6-5.6,10.1l-0.9,1.8c-2.1,2.4-3.7,4.8-4.6,7.3c2.9,5.6,4.1,11.1,3.7,16.5c-0.9,7.9-3.3,14.4-7.3,19.2
			c-0.2,4,0,7.6,0.8,10.8l68.4-3.3C674.3,425.6,669.6,420.9,657.1,416.3z"/>
		<path id="XMLID_4_" class="st0" d="M743.8,381.5c-15-10.9-30.1-16.3-45.2-16c-19.1,3.1-25.7,22.8-19.8,59.2
			c-0.4,1.9-0.9,3.8-1.4,5.5l49.7-2.3C745,414.6,750.5,399.1,743.8,381.5z"/>
		<path id="XMLID_111_" class="st0" d="M809.9,423.3l1.7-3.7v-2.7l0.1-1.8l2.3-18.1c17,0.5,24.9-4.7,24.2-15.4
			c-2.2-4.2-4.4-7.5-6.4-10l-2.8-0.9l-10-1.8c-3.3,0.5-6.4,0.4-9.1-0.1l-1.8-0.9h-2.7h-2.7h-2.7l-3.7-0.8
			c-7.9,0.4-14.9-0.2-20.7-1.8c-5.7,5.3-8.4,11-8.2,18.3c1.8,3.4,3,7.3,3.7,9.3h2.7c6.9-2,13.8-3.2,19.8-3.2v2.7
			c-2,5.9-3,11-3.1,15.4l-2,5.4l-1.4,11.8l22.4-1L809.9,423.3z"/>
		<path id="XMLID_110_" class="st0" d="M874.2,397.2c6.9-7.9,14.6-9.3,23-4c-1.3,4.5-0.6,8.2,2,11l7,0.9
			c22.6-15.8,18.6-30.1-12.1-40.1h-3h-12.1c-4,1-7.7,3.3-11,4c-17.4,16.6-27.6,34.5-30.6,53.7l25.7-1.2
			C865.1,412.8,868.7,404.7,874.2,397.2z"/>
		<path id="XMLID_109_" class="st0" d="M1000,390.8c-14.6-0.5-27.1,3-37.8,10.6l-9.6,3.5v-3.5l2-3.5v-2.6v-2.6v-2.6l2.5-14
			c-4.3-6-9.7-9.5-15.9-10.6l-5.5,6.2c-0.9,3.4-1.1,6.3-1.1,8.8v2.6c-2,4.3-2.6,8.1-2.4,11.4c-1.1,3.4-2,6.6-2.1,9.7
			c-3.7,2.3-6.5,5-8.1,7.9l1.5,6.9l58.9-2.7C991.2,410,997.1,401.6,1000,390.8z"/>
	</g>
	<g id="XMLID_97_">
		<path id="XMLID_107_" class="st0" d="M414.2,468.4l-1.9,5.6l1.9,20.2l3.7,0.9c10.9-14.5,18-30.9,21.3-49l-23.8,1.1
			C413.6,454.8,413.2,461.9,414.2,468.4z"/>
		<path id="XMLID_106_" class="st0" d="M344.3,466.6c0.9,2.3,1.6,4.4,1.8,6.4l3.7,16.6l1.8-0.9l4.6-5.6l3.7-4.5l0.9-2.8l0.9-2.8
			l5.5-11l1.8-12.6l-23.1,1.1c-0.6,3.5-1.5,6.7-2.6,9.7L344.3,466.6z"/>
		<path id="XMLID_105_" class="st0" d="M392.1,452.8l3.7-0.9c0.6-1.1,1.2-1.7,1.8-1.8l1.2-2.1l-8.6,0.4
			C391,449.9,391.7,451.3,392.1,452.8z"/>
		<path id="XMLID_104_" class="st0" d="M447.6,485.5c3.8,4.7,7.9,7.6,12.3,8.7l8.7-8.7l7.8-27.4l20.3-4.1
			c-3.1,18.7-3.5,27.5-1.2,26.4l6.4,15.6c11.6-17.8,18.2-35.7,19.8-53.7l-65.8,3.1c-2.4,5.2-4.6,10.5-6.5,15.6L447.6,485.5z"/>
		<path id="XMLID_103_" class="st0" d="M530.1,471.4c4,6.6,5.9,13,6.1,19.1c5.9,4.9,11.9,6.1,18.1,3.7c18.5-7.3,29.4-19.7,32.7-37.3
			l1.8-0.9c3-5.9,5.6-11.6,7.8-17.1l-25.6,1.2c-0.7,0.8-1.5,1.5-2.3,2.2c-3,6.6-6.7,11.8-10.9,15.5c-1.1,0.1-2-0.2-2.7-0.9
			c-1-5.5-1.3-10.7-0.9-15.5c-0.1-0.2,0.4-0.4,0.3-0.6l-24.7,1.2v5.7C530.7,456.6,531.6,464.5,530.1,471.4z"/>
		<path id="XMLID_102_" class="st0" d="M610.9,459.4l-0.9,6.4c-1.4,9.2-1.7,16.5-0.9,22.7c5.9,2.1,11.7,2.5,17.4,1.5h2.8
			c11.5,5,22.2,5.9,32.1,4.9c2.3-3.9,3.5-7.4,3.7-10.9c-5.1-3.7-8.8-7.9-11-12.8l-7.1-0.8c-5.7-1.8-10.3-3-14.3-3.6V464v-1.8v-2.8
			l1.9-7.6l1.9-6.7h2.8h1.8h7.3c5.8-2,10.7-1,14.7-0.1c9.2-3.3,14.8-6.7,16.9-9.9l-68.4,3.1c0.5,2.1,1.1,4,2,5.7L610.9,459.4z"/>
		<path id="XMLID_101_" class="st0" d="M684.1,457.3l0.6,2.8v13.2c2,8.3,1.2,15.2,1.1,20.7c0.9,0.6,1.6,1.3,1.8,1.9
			c3.3,1.5,6.7,1.8,10,0.9c1-2.2,2.1-4.1,3.4-5.6l0.8-1.9c1.2-7.4,3.1-13.3,5.8-17.8l4.1,8.5l3.3,1.8l3.3,3.8l4.1,1.9l4.9,2.8
			l3.3,2.8c4.3,1.7,7.9,3.5,10.7,5.6l3.2,1.9l3.3,0.9l6.6,4.7l2.5,0.9l1.6,1.9l2.4,0.9l2.5,0.9l13.1,8.5l10.9,1.9l4.3-6.6v-6.6
			c-2-0.6-1.7-1.3-1.8-1.9c-1-0.6-1.6-1.3-1.8-1.9l-1.7-0.9l-2.5-1.8c-2.6-2.1-4.5-4.3-5.8-6.6c-3.3-1.9-5.7-4-7.5-6.6l-1.6-0.9
			l-1.6-0.9l-4.9-3.8l-4.9-1.8l-1.6-1.9l-1.7-0.9c-5.8-2.6-10.4-6.1-14-10.4l-1.7-0.9l-1.6-0.9L732,462c-5.5-4.1-9.6-8.8-12.3-14.1
			l-4.1-3.7c8-3.7,14.7-7.7,20.3-11.8l-49.7,2.3c-1.3,4.4-3.2,8.2-5.3,11.4C681.3,450.7,682.3,454.5,684.1,457.3z"/>
		<path id="XMLID_100_" class="st0" d="M794.5,435.9l-0.9,9l-0.9,1.8c-0.3,6.5-0.9,11.9-1.8,16.3c-13.3,2.8-20.3,0.7-20.8-6.4
			c-8.7,4.7-13.2,11.7-13.5,20.8l3.6,2.7l10,3.7l2.7,0.9l1.8,0.9l2.7,0.9l20.8,5.4c0.7,1,1,2.2,0.9,3.6l7.2-0.9l6.3-0.9
			c6.4,0.5,11.8-0.1,16.3-1.8c1.3-2.9,2.2-5.6,2.7-8.1c-8.8-5.1-14.5-11.1-18.4-18.1l1.5-3.7v-3.6v-4.5v-2.7l1-3.6l1-2.7v-3.6
			l0.7-3.7l0.7-9.1l-22.1,1l-0.4,3.6L794.5,435.9z"/>
		<path id="XMLID_99_" class="st0" d="M851.9,472.9c5,16.7,15.7,24,32.1,22.1c18,0.9,30-6.1,36.2-21.1c-0.9-2.3-2.2-3.3-4-3
			c-21.9,8.9-36.3,4.9-43.2-12.1c-2.7-11.8-3-22.7-0.8-32.8l-25.7,1.2C844.2,441.7,846,456.9,851.9,472.9z"/>
		<path id="XMLID_98_" class="st0" d="M933.3,438.3l-0.9,6.2l-0.9,1.8l-0.9,5.2l-0.9,7c0.2,5.4-0.4,10.1-1.8,14.1
			c1.6,5.6,2.5,10.3,2.6,14l1.8,7.9c1.8,0.3,3.2-0.9,4.4-3.5l1.8-1.8l0.9-1.8l1.8-0.9c1.1-3.5,2.5-6.4,4.3-8.7l0.9-2.6
			c1.8-4.7,3.6-8.5,5.3-11.4c0.4-6.9,1.8-13,4.4-18.4l1.8,3.5l1.8,1.8l1.8,2.6l0.9,2.6c3.1,3.5,5.4,6.7,7,9.7l2.6,6.2
			c2.3,2.4,4,4.8,5.3,7l0.9,2.6c4.7,3.9,8.2,7.7,10.6,11.4l1.8,0.9l5.2,1.8c2-2.3,3.2-4.4,3.5-6.2l1.8-5.3c-1.6-3.3-2.5-6.2-2.6-8.7
			l-0.9-3.5c-2.4-4.9-4.2-9-5.2-12.3c-1-0.6-1.6-1.2-1.8-1.8l-1.8-2.6l-0.9-2.6c-1-0.6-1.6-1.2-1.8-1.8l-0.9-1.8l-1.8-2.6
			c-5-6.9-8.5-12.7-10.6-17.6c7.1-1.9,13.2-4.6,18.4-8.1l-58.9,2.7l0.2,1C930.1,429.3,930.4,434,933.3,438.3z"/>
	</g>
	<polyline id="XMLID_94_" class="st0" points="991.7,420.1 1042.2,420.1 973.1,428.2 	"/>
	<polygon id="XMLID_93_" class="st0" points="863.3,421.6 905,420.5 863.9,418.8 	"/>
	<polygon id="XMLID_92_" class="st0" points="346.7,450.5 299.3,452.8 346.7,455.6 	"/>
</g>
<g id="XMLID_52_">
	<g id="CLI_1_">
		<g id="XMLID_84_">
			<path id="XMLID_27_" class="st1" d="M1165.5,371.9c30.6,0,56.8,18.7,67.8,45.3c-31.4-28-86.1-13.7-86.1-13.7s-25.6,5.9-25.6,30.8
				c0,21.3,21.4,21.3,21.4,21.3l95.8-6.9c-1.8,38.9-33.9,70-73.3,70c-40.5,0-73.4-32.8-73.4-73.4S1124.9,371.9,1165.5,371.9z"/>
		</g>
		<path id="XMLID_83_" class="st1" d="M1191.6,376.7c0,0-70.9-26.7-101.1,11.1c-14.6,18.3,17.7,11.6,17.7,11.6"/>
		<g id="XMLID_80_">
			<path id="XMLID_35_" class="st0" d="M1157.2,407.4c2,0,3.9,0.7,5.6,2l-6.8,12.6l11.8-6.9c2,3.4,1.9,6.3,1.9,11.2
				c0,10.5-5.6,18.9-12.6,18.9c-7,0-12.6-8.5-12.6-18.9C1144.6,415.8,1150.3,407.4,1157.2,407.4z"/>
		</g>
		<g id="XMLID_62_">
			<path id="XMLID_33_" class="st0" d="M1215.5,413.7c1.9,0,3.7,1.1,5.1,3l-2.7,5.2l4.4-2.1c1.1,2.5,1.7,5.5,1.7,8.9
				c0,8.2-3.8,14.9-8.6,14.9s-8.6-6.7-8.6-14.9S1210.8,413.7,1215.5,413.7z"/>
		</g>
	</g>
	<g id="XMLID_124_">
		<path id="XMLID_127_" class="st0" d="M1292.4,389.9c5.4,0.9,11.5,3,18.3,6.4L1307,411v2.8l-4.6,15.6l-0.9,1.8l-0.9,2.8l-0.9,4.6
			l-4.6,16.5l-0.9,3.6l-1.8,6.5l-0.9,1.8l-1.8,6.4v2.8l-1.8,6.4c4,0.9,8.8,1.5,14.7,1.8c1.7,0.5,4.1,0.8,7.3,0.9l2.8,0.9h2.7
			l4.6,0.9h3.6l2.8,0.9l7.3-1.8c8.5,3,15.5,8.2,21.1,15.5l-5.5,8.3c-6.3-0.7-13.6,0-22,1.8l-1.8-0.9h-3.6l-12-1.8
			c-3.7,0-8-0.6-12.8-1.8h-2.8l-4.6-0.9h-2.8c-3.3-0.8-7.3-1.1-11.9-0.9l-11,6.4c-0.8-2.6-1.5-5.6-1.8-9.2c-3.4-5.2-5-11.3-4.6-18.3
			c2.4-3.7,4.2-8,5.5-12.8c5.7-8,9.3-18.1,11-30.2l3.7-9.2l0.9-6.4c2-4.4,3.5-9.9,4.6-16.5l0.9-1.8l-0.9-6.5
			c0.9-1.7,1.8-4.2,2.8-7.3L1292.4,389.9z"/>
		<path id="XMLID_125_" class="st0" d="M1399.8,389.9c5.7,1.6,12.5,2.2,20.2,1.8l3.6,0.9h2.6h2.6h2.6l1.7,0.9c2.6,0.4,5.6,0.4,8.8,0
			l9.7,1.8l2.6,0.9c1.9,2.4,4,5.6,6.1,9.7c0.7,10.4-7.2,15.4-23.8,15l-2.6,17.6l-0.9,1.7v2.6l-0.9,3.6l-0.9,9.6l-0.9,3.6v3.5
			l-0.9,2.6l-0.9,3.5v2.6l-0.9,4.4v3.5l-0.9,3.6c3.8,6.8,9.9,12.7,18.5,17.6c-0.5,2.5-1.4,5.1-2.6,7.9c-4.3,1.6-9.6,2.2-15.8,1.7
			l-6.1,0.9l-7.1,0.9c0.1-1.3-0.2-2.5-0.9-3.5l-20.3-5.3l-2.6-0.9l-1.8-0.9l-2.6-0.9l-9.7-3.6l-3.5-2.6c0.3-8.9,4.7-15.7,13.2-20.3
			c0.5,6.9,7.3,9,20.3,6.2c0.9-4.2,1.5-9.5,1.8-15.9l0.9-1.8l0.9-8.8l0.9-2.6l1.7-15l1.8-5.3c0.1-4.2,1-9.2,2.6-15v-2.6
			c-5.6,0-11.8,1.5-18.5,4.4h-2.6c-0.6-3.2-1.8-6.4-3.6-9.7C1391.6,401.3,1394.3,395.1,1399.8,389.9z"/>
	</g>
</g>
</svg>
