<?xml version="1.0" standalone="no"?>
<!DOCTYPE svg PUBLIC "-//W3C//DTD SVG 20010904//EN"
 "http://www.w3.org/TR/2001/REC-SVG-20010904/DTD/svg10.dtd">
<svg version="1.0" xmlns="http://www.w3.org/2000/svg"
 width="2029.000000pt" height="2029.000000pt" viewBox="0 0 2029.000000 2029.000000"
 preserveAspectRatio="xMidYMid meet">
<metadata>
Created by potrace 1.11, written by Peter Selinger 2001-2013
</metadata>
<g transform="translate(0.000000,2029.000000) scale(0.100000,-0.100000)"
fill="#000000" stroke="none">
<path d="M6789 20226 c-2 -2 -74 -7 -159 -10 -241 -10 -348 -16 -520 -32 -30
-2 -79 -7 -107 -9 -48 -5 -84 -8 -193 -20 -108 -11 -158 -17 -185 -21 -16 -3
-48 -7 -70 -10 -44 -4 -104 -12 -150 -20 -16 -3 -43 -7 -60 -9 -52 -7 -146
-22 -185 -30 -13 -2 -42 -7 -65 -11 -22 -3 -58 -9 -80 -14 -22 -5 -56 -11 -75
-15 -30 -5 -77 -14 -155 -29 -580 -117 -1281 -337 -1740 -546 -33 -15 -82 -37
-110 -50 -124 -55 -520 -257 -551 -281 -6 -5 -32 -20 -58 -34 -136 -72 -482
-301 -656 -434 -294 -224 -416 -330 -674 -586 -406 -403 -701 -784 -869 -1120
-38 -77 -91 -213 -102 -265 -2 -8 -8 -34 -13 -58 -15 -62 -12 -202 4 -272 42
-182 183 -320 419 -410 75 -29 194 -63 260 -75 17 -2 41 -7 55 -10 14 -3 48
-8 75 -11 28 -3 56 -7 63 -9 78 -26 809 -26 1017 -1 17 2 64 7 105 11 41 3 89
8 105 11 17 2 50 6 75 9 25 2 61 6 80 9 19 2 58 7 85 10 28 3 59 8 71 10 12 2
45 7 75 11 30 3 86 13 124 20 64 13 95 18 180 31 17 3 36 7 43 9 17 6 15 -10
-4 -26 -35 -29 -318 -417 -469 -644 -175 -262 -257 -395 -428 -695 -23 -41
-109 -204 -181 -345 -202 -392 -470 -1047 -575 -1405 -12 -41 -25 -82 -28 -90
-3 -8 -7 -19 -9 -25 -1 -5 -21 -73 -44 -150 -37 -128 -132 -495 -144 -555 -2
-14 -13 -65 -25 -115 -11 -49 -22 -103 -25 -120 -3 -16 -10 -55 -16 -85 -16
-79 -17 -82 -40 -225 -12 -71 -23 -141 -26 -155 -2 -14 -11 -79 -19 -145 -9
-66 -18 -133 -20 -150 -7 -49 -14 -116 -20 -190 -4 -38 -8 -80 -10 -92 -2 -13
-6 -67 -10 -120 -3 -54 -8 -116 -10 -138 -23 -229 -23 -929 0 -1266 9 -132 15
-215 20 -269 3 -30 8 -80 11 -110 3 -30 7 -68 9 -85 2 -16 7 -57 10 -90 3 -33
8 -67 10 -75 2 -8 6 -42 10 -75 3 -33 10 -85 15 -115 5 -30 11 -68 13 -85 3
-16 12 -73 22 -125 9 -52 18 -108 21 -125 7 -47 74 -366 84 -405 5 -19 12 -48
15 -65 4 -24 29 -121 89 -350 38 -143 118 -400 188 -605 344 -995 866 -1958
1514 -2790 171 -220 285 -356 499 -595 112 -125 520 -533 640 -640 49 -44 96
-87 105 -95 31 -29 216 -187 295 -250 44 -36 82 -67 85 -70 11 -12 151 -119
270 -207 69 -51 130 -97 136 -102 16 -13 233 -162 294 -202 74 -49 213 -138
280 -181 390 -247 998 -554 1465 -739 83 -33 166 -67 185 -76 19 -8 42 -17 50
-18 8 -2 77 -27 153 -54 231 -86 637 -208 892 -271 28 -6 57 -14 65 -16 38 -9
326 -75 349 -79 14 -2 71 -13 126 -24 55 -10 116 -22 135 -25 19 -3 45 -8 56
-10 12 -2 39 -7 60 -10 22 -3 50 -8 64 -11 14 -2 43 -7 65 -10 22 -3 54 -7 70
-10 64 -10 112 -16 155 -21 25 -2 59 -6 75 -8 17 -3 57 -8 90 -11 33 -3 74 -8
90 -10 17 -2 71 -7 120 -10 50 -4 101 -8 115 -10 162 -27 1307 -27 1515 0 17
2 64 7 105 10 104 8 181 16 207 20 12 2 57 7 100 10 43 4 80 9 83 10 3 2 35 6
70 10 36 3 72 8 80 10 8 2 35 7 60 10 25 3 56 8 70 10 14 3 41 7 60 11 19 3
73 12 120 20 47 8 96 17 110 19 214 34 772 172 1055 262 44 13 87 26 95 28 91
21 645 226 825 305 22 10 105 46 185 81 224 99 621 298 830 418 41 24 95 55
120 69 25 13 64 38 88 53 24 16 45 29 47 29 14 0 459 290 463 302 2 4 9 8 16
8 7 0 21 8 32 18 10 9 75 57 144 106 118 84 276 203 359 271 21 17 57 46 81
65 24 19 48 40 54 45 6 6 34 28 61 50 28 21 52 42 55 45 3 3 39 34 80 70 41
36 77 67 80 70 3 3 48 43 100 90 102 91 520 506 610 606 149 165 206 230 334
383 119 143 350 443 455 591 122 174 381 574 464 720 249 437 416 772 583
1173 77 186 201 508 215 562 4 17 26 84 49 150 56 166 185 617 206 718 2 10 6
27 9 37 3 10 8 29 11 42 2 13 9 41 13 63 39 180 81 381 87 417 10 68 13 81 18
108 3 14 7 41 10 60 3 19 8 44 10 56 2 12 7 45 11 74 4 29 8 60 10 69 5 28 14
94 20 141 3 25 7 61 10 80 3 19 7 62 11 95 3 33 7 71 9 85 2 14 7 66 11 115 3
50 8 98 10 108 1 10 6 88 10 174 l7 156 -109 -7 c-60 -3 -134 -8 -164 -11
-151 -12 -182 -15 -275 -20 -55 -3 -113 -7 -130 -10 -16 -2 -79 -7 -140 -10
-60 -3 -130 -8 -155 -10 -25 -3 -85 -7 -135 -10 -49 -3 -110 -8 -135 -10 -25
-2 -85 -7 -135 -10 -49 -3 -112 -8 -140 -10 -27 -2 -90 -7 -140 -10 -49 -4
-115 -8 -145 -11 -30 -2 -93 -6 -140 -9 -47 -3 -110 -8 -140 -10 -30 -3 -91
-7 -135 -10 -81 -6 -146 -10 -265 -19 -36 -3 -103 -8 -150 -11 -47 -3 -105 -7
-130 -9 -25 -3 -88 -7 -140 -11 -52 -3 -120 -8 -150 -11 -59 -4 -145 -11 -275
-19 -44 -3 -105 -7 -135 -10 -30 -2 -91 -7 -135 -10 -180 -12 -222 -15 -275
-20 -30 -2 -93 -7 -140 -10 -152 -10 -224 -15 -290 -20 -36 -3 -99 -7 -140
-10 -41 -3 -100 -8 -130 -10 -30 -3 -93 -7 -140 -10 -113 -7 -202 -14 -275
-20 -33 -3 -96 -7 -140 -10 -84 -5 -178 -12 -280 -20 -33 -3 -96 -7 -140 -10
-76 -5 -124 -8 -282 -20 -106 -8 -212 -16 -283 -20 -71 -5 -186 -13 -265 -20
-27 -3 -90 -7 -140 -10 -127 -8 -201 -13 -420 -30 -33 -3 -94 -7 -135 -10 -87
-6 -190 -13 -275 -20 -33 -3 -100 -7 -150 -11 -106 -6 -148 -9 -270 -19 -49
-4 -115 -8 -145 -10 -30 -1 -95 -6 -145 -10 -49 -3 -115 -8 -145 -10 -30 -3
-89 -7 -130 -10 -41 -3 -97 -8 -125 -10 -27 -2 -95 -7 -150 -11 -55 -3 -116
-7 -137 -9 -20 -2 -83 -7 -140 -10 -56 -3 -119 -8 -138 -10 -19 -2 -82 -7
-140 -10 -58 -4 -121 -8 -140 -10 -19 -2 -78 -6 -130 -10 -52 -3 -120 -8 -150
-10 -30 -2 -93 -7 -140 -10 -47 -3 -107 -8 -135 -10 -74 -6 -212 -16 -275 -20
-60 -4 -204 -14 -290 -21 -30 -2 -93 -6 -140 -9 -47 -3 -103 -7 -125 -10 -22
-2 -85 -7 -140 -10 -55 -3 -120 -8 -145 -10 -25 -3 -88 -7 -140 -10 -52 -3
-113 -7 -135 -10 -22 -2 -85 -7 -140 -10 -55 -3 -125 -8 -155 -10 -30 -3 -84
-8 -120 -10 -36 -3 -94 -7 -130 -10 -36 -2 -103 -7 -150 -10 -47 -3 -114 -8
-150 -10 -148 -11 -189 -14 -270 -20 -47 -3 -105 -8 -130 -10 -238 -22 -439
-22 -582 0 -13 2 -45 6 -71 10 -27 4 -59 8 -70 11 -12 2 -40 7 -61 9 -33 5
-95 18 -282 60 -79 18 -318 96 -429 140 -229 90 -485 233 -670 373 -178 135
-386 348 -496 507 -18 28 -36 52 -39 55 -6 6 -10 13 -77 125 -65 110 -85 150
-142 284 -107 253 -163 468 -206 786 -28 206 -27 741 0 958 13 103 16 123 20
137 2 8 6 38 10 65 18 148 92 448 157 640 80 234 213 523 336 725 41 69 155
241 174 265 4 5 45 57 90 115 45 58 92 116 104 130 12 14 44 50 70 80 46 53
210 218 310 311 243 226 647 508 986 687 54 28 106 56 115 61 124 69 510 230
723 301 149 50 402 120 490 136 14 3 54 12 90 20 91 21 546 111 600 119 25 3
77 13 115 20 39 8 93 17 120 20 28 4 57 8 65 10 8 3 33 7 55 10 22 3 51 8 65
10 14 3 43 7 65 10 22 4 65 10 95 15 30 5 78 12 105 15 28 3 61 7 75 10 36 6
98 14 150 20 25 3 61 7 80 10 108 14 201 25 245 30 28 3 66 8 85 11 20 2 60 6
90 9 65 5 161 15 210 20 19 3 69 7 110 10 41 3 91 7 110 9 19 3 82 8 140 11
58 4 116 9 130 10 14 2 86 6 160 10 74 4 160 8 190 10 420 26 1357 26 1805 0
33 -2 110 -6 170 -9 61 -4 130 -8 155 -11 25 -2 77 -7 115 -10 181 -15 160
-13 330 -31 28 -3 66 -7 85 -9 19 -2 60 -7 90 -10 30 -4 66 -8 80 -10 14 -2
50 -6 80 -10 30 -4 66 -8 80 -10 110 -16 189 -27 210 -30 14 -3 43 -7 65 -10
51 -8 80 -13 185 -31 47 -8 99 -17 115 -20 242 -38 729 -149 1056 -239 985
-272 1848 -653 2614 -1153 115 -75 472 -326 485 -341 3 -3 70 -58 150 -122 80
-64 173 -142 208 -173 34 -31 65 -56 67 -56 7 0 -76 196 -155 365 -99 213
-259 524 -370 720 -106 189 -395 646 -412 653 -4 2 -8 8 -8 12 0 7 -151 227
-182 265 -5 6 -27 35 -49 65 -53 73 -75 102 -129 170 -25 31 -55 70 -68 87
-41 54 -171 210 -267 321 -248 287 -572 618 -835 852 -46 41 -91 82 -100 90
-8 8 -58 51 -110 95 -52 44 -97 82 -100 85 -47 48 -391 311 -590 452 -91 64
-170 121 -175 126 -6 5 -15 11 -20 13 -6 2 -62 38 -125 80 -103 67 -305 193
-385 239 -278 161 -382 217 -640 344 -489 242 -994 440 -1545 606 -237 71
-655 191 -715 206 -5 1 -37 10 -70 19 -185 52 -667 174 -790 200 -11 3 -69 16
-130 30 -117 27 -283 64 -325 71 -14 3 -53 11 -86 19 -34 8 -73 16 -85 19 -13
2 -85 16 -159 31 -74 15 -146 29 -160 31 -14 3 -32 7 -40 9 -8 2 -37 7 -65 11
-27 3 -52 8 -55 9 -3 2 -26 6 -50 10 -25 3 -61 10 -80 15 -19 5 -57 11 -84 15
-27 3 -83 12 -125 20 -42 8 -94 16 -116 20 -22 3 -80 12 -130 20 -49 8 -110
17 -135 21 -25 3 -52 8 -60 9 -8 2 -37 6 -65 9 -27 4 -61 9 -75 11 -62 9 -109
15 -155 21 -27 3 -61 7 -75 9 -14 2 -52 7 -85 11 -33 3 -67 8 -75 9 -8 2 -42
6 -75 9 -33 4 -80 9 -105 12 -100 11 -221 23 -290 29 -30 2 -80 7 -110 10 -68
6 -152 13 -250 20 -41 3 -100 7 -130 10 -30 2 -111 7 -180 11 -69 3 -147 8
-175 10 -66 6 -1191 15 -1196 10z"/>
<path d="M9367 14914 c-1 -1 -33 -5 -71 -8 -278 -25 -556 -168 -801 -411 -291
-289 -495 -664 -639 -1175 -37 -128 -87 -416 -101 -570 -15 -167 -21 -460 -11
-600 8 -112 20 -225 31 -290 2 -14 7 -45 10 -70 22 -170 101 -470 179 -675
196 -517 544 -942 924 -1130 121 -60 185 -81 332 -111 75 -15 285 -21 348 -10
17 3 47 8 65 11 17 3 77 19 132 36 427 132 803 514 1053 1069 96 214 190 530
228 766 3 20 8 46 10 58 2 11 7 44 10 71 3 28 7 61 10 75 28 173 27 1012 -2
1250 -12 97 -47 250 -80 350 -34 100 -140 330 -153 330 -3 0 -22 -10 -41 -22
-36 -22 -547 -320 -610 -355 -46 -27 -444 -260 -484 -284 -17 -10 -38 -22 -46
-26 -8 -4 -69 -39 -135 -78 -66 -39 -151 -89 -189 -110 -63 -35 -67 -36 -56
-14 7 13 58 107 113 209 54 102 117 219 140 260 22 41 55 102 72 135 18 33 81
150 140 260 59 110 123 229 142 265 107 198 180 334 221 410 25 47 50 91 56
99 8 10 3 19 -19 37 -35 28 -139 91 -210 127 -51 25 -225 89 -225 83 0 -2 -21
2 -46 10 -53 16 -286 38 -297 28z"/>
<path d="M17208 14065 c-2 -2 -28 -5 -58 -6 -373 -16 -744 -402 -935 -974 -47
-140 -101 -353 -110 -435 -2 -14 -6 -38 -9 -55 -3 -16 -8 -55 -12 -85 -3 -30
-7 -66 -10 -80 -25 -155 -19 -651 9 -795 4 -17 9 -55 13 -85 3 -30 7 -57 9
-60 2 -3 6 -26 10 -50 3 -25 13 -72 22 -105 8 -33 17 -69 19 -81 11 -61 87
-284 126 -374 161 -364 359 -599 616 -729 185 -93 425 -91 617 7 244 123 459
386 609 745 59 141 131 378 151 497 3 19 10 53 15 75 5 22 11 64 15 94 4 30 8
61 10 70 3 18 14 138 20 221 12 166 2 493 -20 640 -2 14 -6 45 -10 70 -5 42
-8 55 -20 120 -3 14 -8 39 -11 55 -28 157 -141 505 -163 505 -9 0 -356 -166
-481 -229 -73 -38 -109 -49 -94 -30 6 8 48 86 94 174 79 153 139 267 221 421
l38 71 -31 39 c-53 67 -181 187 -240 227 -115 76 -230 122 -333 133 -27 3 -55
7 -62 9 -6 2 -13 2 -15 0z"/>
</g>
</svg>
